<?xml version="1.0" encoding="UTF-8"?>
<svg version="1.1" xmlns="http://www.w3.org/2000/svg" width="170" height="51">
<path d="M0 0 C56.1 0 112.2 0 170 0 C170 16.83 170 33.66 170 51 C113.9 51 57.8 51 0 51 C0 34.17 0 17.34 0 0 Z " fill="#FCFCFC" transform="translate(0,0)"/>
<path d="M0 0 C3.96 0 7.92 0 12 0 C12.9765625 2.47395833 13.953125 4.94791667 14.9296875 7.421875 C15.85749079 9.65672963 16.91783604 11.83567209 18 14 C19.65 9.38 21.3 4.76 23 0 C30.59 0 38.18 0 46 0 C46 6.93 46 13.86 46 21 C48.64 21 51.28 21 54 21 C54 14.07 54 7.14 54 0 C65.88 0 77.76 0 90 0 C90.495 2.475 90.495 2.475 91 5 C91.928125 4.175 92.85625 3.35 93.8125 2.5 C98.62875601 -0.92207664 103.29456986 -0.89096259 109 0 C112.93819064 1.25537792 116.12250105 2.45379607 118.21484375 6.140625 C118.47394531 6.75421875 118.73304687 7.3678125 119 8 C119.59425781 7.4225 120.18851562 6.845 120.80078125 6.25 C125.19455568 2.31405277 128.55985876 -0.5803457 134.625 -0.75 C141.07308699 -0.23014009 145.66109722 1.90098468 150.4375 6.1875 C152.59902945 10.07825301 153.22689072 13.56050499 153 18 C152.25331838 20.58503066 151.27400767 22.60486558 150 25 C153.96 25.33 157.92 25.66 162 26 C162 29.63 162 33.26 162 37 C157.8882744 37.02465746 153.77657722 37.04283959 149.66479492 37.05493164 C148.26504772 37.0599708 146.8653058 37.06680216 145.46557617 37.07543945 C143.45754223 37.0875232 141.44947043 37.09269807 139.44140625 37.09765625 C138.23170166 37.10289307 137.02199707 37.10812988 135.77563477 37.11352539 C133 37 133 37 132 36 C131.95919217 34.00041636 131.95745644 31.99954746 132 30 C131.29875 29.938125 130.5975 29.87625 129.875 29.8125 C125.91084133 28.69219429 123.97783887 26.83933474 121 24 C121 23.34 121 22.68 121 22 C120.34 22 119.68 22 119 22 C118.67 23.32 118.34 24.64 118 26 C117.34 26 116.68 26 116 26 C116 26.66 116 27.32 116 28 C108.74490487 31.60358754 101.49628736 31.52517543 93.57202148 31.50097656 C91.30651301 31.49999741 89.04432374 31.541847 86.77929688 31.5859375 C85.32813199 31.59114092 83.87695546 31.59383275 82.42578125 31.59375 C80.46765503 31.60438477 80.46765503 31.60438477 78.4699707 31.61523438 C74.15652915 30.85045054 72.71912251 29.35342624 70 26 C68.49843126 22.99686252 68.90718796 20.20932478 68.9375 16.875 C68.94652344 15.59367187 68.95554687 14.31234375 68.96484375 12.9921875 C68.97644531 12.00476562 68.98804687 11.01734375 69 10 C68.34 10 67.68 10 67 10 C67 16.93 67 23.86 67 31 C62.60314317 31.13487291 58.2104172 31.23408579 53.8125 31.3125 C52.56662109 31.35439453 51.32074219 31.39628906 50.03710938 31.43945312 C41.02270208 31.56028968 41.02270208 31.56028968 38.05615234 29.93505859 C33.80193829 25.76657178 33.73358309 21.49572491 33.4375 15.875 C33.39431641 15.12089844 33.35113281 14.36679687 33.30664062 13.58984375 C33.2005168 11.72678112 33.09974999 9.86341476 33 8 C32.75765625 8.73863281 32.5153125 9.47726563 32.265625 10.23828125 C29.96352577 17.20655855 27.53702616 24.11378613 25 31 C20.38 31 15.76 31 11 31 C8.49360008 25.36444435 6.39538733 19.63823549 4.375 13.8125 C4.06304688 12.92369141 3.75109375 12.03488281 3.4296875 11.11914062 C2.13914181 7.41716582 0.95226151 3.80904605 0 0 Z " fill="#253262" transform="translate(4,14)"/>
<path d="M0 0 C10.89 0 21.78 0 33 0 C33 2.97 33 5.94 33 9 C22.11 9 11.22 9 0 9 C0 6.03 0 3.06 0 0 Z " fill="#D2312E" transform="translate(38,1)"/>
<path d="M0 0 C2.875 1 2.875 1 4.25 2.625 C5.12339522 5.94390185 5.23516716 8.57841196 4.875 12 C2.875 14.9375 2.875 14.9375 0.875 17 C-2 16.6875 -2 16.6875 -5.125 16 C-7.80634316 11.97798526 -7.80594539 8.72405864 -7.125 4 C-4.97934728 0.53394561 -4.08372935 0 0 0 Z " fill="#F3F4F7" transform="translate(141.125,21)"/>
<path d="M0 0 C2.31 0 4.62 0 7 0 C6.67 3.63 6.34 7.26 6 11 C4.02 11 2.04 11 0 11 C0 7.37 0 3.74 0 0 Z " fill="#F5F7F9" transform="translate(86,24)"/>
<path d="M0 0 C6.6 0 13.2 0 20 0 C20 0.33 20 0.66 20 1 C18.14375 1.1546875 18.14375 1.1546875 16.25 1.3125 C13.36903879 1.6511393 12.22656251 1.82674631 9.875 3.625 C8 5 8 5 4.875 4.9375 C3.451875 4.4734375 3.451875 4.4734375 2 4 C1.34 2.68 0.68 1.36 0 0 Z " fill="#EEF0F4" transform="translate(103,33)"/>
<path d="M0 0 C0.33 0.99 0.66 1.98 1 3 C-2.3 3 -5.6 3 -9 3 C-9 2.01 -9 1.02 -9 0 C-5.93109813 -1.53445094 -3.29905734 -0.54984289 0 0 Z " fill="#EEF0F4" transform="translate(113,22)"/>
</svg>
